HIERARCHY
ROOT ui
{
	 OFFSET 0 0 0
	 CHANNELS 3 XPosition YPosition Z Position
	 EndSite
	 {
	 OFFSET 0 -1 0
	 }
}
ROOT li
{
	 OFFSET 0 0 0
	 CHANNELS 3 XPosition YPosition Z Position
	 EndSite
	 {
	 OFFSET 0 -1 0
	 }
}
ROOT ul
{
	 OFFSET 0 0 0
	 CHANNELS 3 XPosition YPosition Z Position
	 EndSite
	 {
	 OFFSET 0 -1 0
	 }
}
ROOT ll
{
	 OFFSET 0 0 0
	 CHANNELS 3 XPosition YPosition Z Position
	 EndSite
	 {
	 OFFSET 0 -1 0
	 }
}
ROOT tt
{
	 OFFSET 0 0 0
	 CHANNELS 3 XPosition YPosition Z Position
	 EndSite
	 {
	 OFFSET 0 -1 0
	 }
}
ROOT tb
{
	 OFFSET 0 0 0
	 CHANNELS 3 XPosition YPosition Z Position
	 EndSite
	 {
	 OFFSET 0 -1 0
	 }
}
ROOT td
{
	 OFFSET 0 0 0
	 CHANNELS 3 XPosition YPosition Z Position
	 EndSite
	 {
	 OFFSET 0 -1 0
	 }
}
ROOT v
{
	 OFFSET 0 0 0
	 CHANNELS 3 XPosition YPosition Z Position
	 EndSite
	 {
	 OFFSET 0 -1 0
	 }
}
ROOT bn
{
	 OFFSET 0 0 0
	 CHANNELS 3 XPosition YPosition Z Position
	 EndSite
	 {
	 OFFSET 0 -1 0
	 }
}
MOTION
Frames: 21
Frame Time: 0.002
6.369609832763672E-4	-0.0036141319274902344	0		0.46939572143554686	-2.495293212890625	0		-0.9131629028320313	0.274140869140625	0		-0.5656856079101562	-2.4961328125	0		1.4314859619140625	-0.45045535278320314	0		3.185528076171875	-0.3720574035644531	0		4.47416748046875	-0.32519378662109377	0		5.92063427734375	0.3018555908203125	0		0.005226769924163818	6.00474658203125	0		
0.01898156929016113	0.0048159418106079105	0		0.49276385498046876	-2.485919677734375	0		-0.912924072265625	0.27377847290039065	0		-0.6102775268554688	-2.4829658203125	0		1.614680419921875	-0.4559552001953125	0		3.18205224609375	-0.3483544616699219	0		4.48556103515625	-0.31265997314453126	0		5.9378720703125	0.301326904296875	0		-0.011666892051696777	5.9955888671875	0		
-0.011788402557373047	8.267580270767212E-4	0		0.5050371398925781	-2.487411865234375	0		-0.8865465698242188	0.28211514282226563	0		-0.5750527954101563	-2.488732421875	0		1.6069813232421875	-0.45420773315429686	0		3.168200439453125	-0.35952874755859376	0		4.481767578125	-0.31894625854492187	0		5.92915771484375	0.30210525512695313	0		-0.01240670108795166	5.9962470703125	0		
0.02540769386291504	-0.008955536842346191	0		0.4524367370605469	-2.480136962890625	0		-0.9232408447265625	0.2821972961425781	0		-0.574739013671875	-2.489083251953125	0		1.607287353515625	-0.45455026245117186	0		3.176622802734375	-0.34995986938476564	0		4.48207275390625	-0.3192777709960937	0		5.9296484375	0.3177781677246094	0		-0.02825334167480469	5.9850869140625	0		
-0.011157322883605957	1.3473400473594665E-4	0		0.48276904296875	-2.4808310546875	0		-0.912021240234375	0.2727227783203125	0		-0.6113785400390624	-2.486994384765625	0		1.4806595458984375	-0.4503988342285156	0		3.19785546875	-0.358539306640625	0		4.49137646484375	-0.32171282958984376	0		5.9389736328125	0.3173473815917969	0		-0.045884899139404293	5.98995458984375	0		
0.020228424072265626	0.003434113025665283	0		0.45919915771484376	-2.473885498046875	0		-0.8975410766601563	0.2842190551757813	0		-0.6330307006835938	-2.487074462890625	0		1.60795751953125	-0.45522183227539065	0		3.19447900390625	-0.3348237609863281	0		4.4957880859375	-0.31608709716796873	0		5.95650048828125	0.3328230895996094	0		0.0036508278846740724	6.00704150390625	0		
-0.006424561023712159	0.003422226905822754	0		0.479639892578125	-2.46644873046875	0		-0.8971962280273438	0.2838893432617188	0		-0.6066255493164062	-2.482708984375	0		1.60830322265625	-0.45554840087890625	0		3.193730712890625	-0.34313607788085937	0		4.4961337890625	-0.3164100646972656	0		5.957033203125	0.3485008544921875	0		-0.046207496643066406	5.99030078125	0		
-0.006086233139038086	0.00310276198387146	0		0.449981201171875	-2.466416015625	0		-0.8968580322265625	0.28356954956054686	0		-0.6161917724609375	-2.474912109375	0		1.6185003662109374	-0.46798373413085936	0		3.2231962890625	-0.33279522705078124	0		4.49647216796875	-0.31672784423828126	0		5.96538232421875	0.3490897216796875	0		-0.026931352615356445	5.9847587890625	0		
-0.009812368392944335	-0.001160051941871643	0		0.4782636413574219	-2.470054443359375	0		-0.9074310913085938	0.29238827514648436	0		-0.6469873657226562	-2.484857421875	0		1.6096922607421875	-0.4791880187988281	0		3.1943896484375	-0.34376556396484376	0		4.49272265625	-0.3229922180175781	0		5.97079638671875	0.3567182922363281	0		-0.028584999084472658	5.98647216796875	0		
-0.009519261360168457	-0.0014607390165328978	0		0.42465213012695313	-2.46172265625	0		-0.8962440795898438	0.2829599609375	0		-0.6446731567382813	-2.48318115234375	0		1.6149141845703125	-0.48554840087890627	0		3.1928232421875	-0.33204644775390624	0		4.5019912109375	-0.32540231323242186	0		5.97108984375	0.35641229248046874	0		-0.011182182312011719	5.99497119140625	0		
-0.005214389801025391	0.0022004680633544924	0		0.4589521789550781	-2.4584140625	0		-0.8919388427734375	0.28662216186523437	0		-0.6373360595703125	-2.4765546875	0		1.4931568603515626	-0.4864104919433594	0		3.2208681640625	-0.35066885375976564	0		4.49615576171875	-0.3336280212402344	0		5.98853515625	0.3719135131835937	0		0.005198933124542236	6.0044912109375	0		
-0.004996521949768067	0.0019177290201187133	0		0.4502617492675781	-2.45059228515625	0		-0.891720703125	0.28634042358398437	0		-0.6011586303710937	-2.4802587890625	0		1.617271728515625	-0.4961491394042969	0		3.209391357421875	-0.32481622314453124	0		4.50837255859375	-0.3340566101074219	0		5.983859375	0.38068203735351563	0		0.004458838939666748	6.00722021484375	0		
-0.004822862148284912	0.0016433789730072022	0		0.476372314453125	-2.456171630859375	0		-0.9014404296875	0.29518374633789063	0		-0.6618192138671875	-2.46581787109375	0		1.6073165283203126	-0.5073071594238281	0		3.200342529296875	-0.3439871520996094	0		4.490640625	-0.32612521362304686	0		5.9750341796875	0.3805068054199219	0		-0.012488889694213866	5.99614599609375	0		
-0.008742533683776855	-0.0025762009620666506	0		0.44853366088867186	-2.45311083984375	0		-0.9013131103515625	0.29491796875	0		-0.5887587280273437	-2.471940185546875	0		1.6183013916015625	-0.5197040405273438	0		3.216468017578125	-0.3444453125	0		4.50867236328125	-0.33460772705078123	0		5.98416064453125	0.38012765502929685	0		-0.027483186721801757	5.98505615234375	0		
-0.008663150787353515	-0.0028363640308380128	0		0.44860980224609376	-2.45337158203125	0		-0.9012333374023438	0.29465899658203126	0		-0.63977294921875	-2.479600341796875	0		1.496364990234375	-0.520534423828125	0		3.22146435546875	-0.3517679443359375	0		4.4837646484375	-0.33358056640625	0		5.9803349609375	0.38790594482421875	0		-0.012267825126647949	5.995619140625	0		
-0.004583808898925781	8.622159957885743E-4	0		0.45269677734375	-2.448673828125	0		-0.8822131958007813	0.293183349609375	0		-0.63672119140625	-2.477888916015625	0		1.629281982421875	-0.5313516235351563	0		3.209802490234375	-0.32588848876953125	0		4.4967841796875	-0.33499481201171877	0		6.00246044921875	0.3953829345703125	0		0.003914657115936279	6.00717626953125	0		
-0.004595167160034179	6.136590242385864E-4	0		0.452679931640625	-2.44892333984375	0		-0.8870827026367187	0.30499462890625	0		-0.6476551513671875	-2.47100732421875	0		1.5023133544921874	-0.5271130981445312	0		3.202532470703125	-0.34806051635742186	0		4.501677734375	-0.3433115539550781	0		5.99755615234375	0.40417904663085935	0		-0.029327550888061524	5.98631640625	0		
-0.0046464018821716305	3.705199956893921E-4	0		0.4416807556152344	-2.4440390625	0		-0.8921796264648437	0.3008131408691406	0		-0.6497372436523438	-2.47322509765625	0		1.625169921875	-0.5358046875	0		3.248606201171875	-0.33785430908203123	0		4.51362451171875	-0.34370925903320315	0		6.001599609375	0.4118702087402344	0		-0.013232577323913574	5.996884765625	0		
-0.008778785705566406	-0.0038201959133148194	0		0.4326796875	-2.436173583984375	0		-0.8922640991210937	0.30057879638671875	0		-0.6617616577148437	-2.46731982421875	0		1.625811767578125	-0.5590594482421875	0		3.197475830078125	-0.3415061950683594	0		4.4966328125	-0.3357665405273437	0		6.00642138671875	0.4035495300292969	0		-0.029421897888183595	5.98583544921875	0		
-0.004845325946807861	-1.00382000207901E-4	0		0.45036422729492187	-2.452619384765625	0		-0.877435546875	0.29517465209960936	0		-0.6400422973632812	-2.480806884765625	0		1.4446375732421874	-0.5631735229492187	0		3.2293466796875	-0.3431321411132813	0		4.5063291015625	-0.3521397705078125	0		6.00140478515625	0.4113428955078125	0		-0.04844328308105469	5.99082568359375	0		
-0.004977725982666016	-3.28014999628067E-4	0		0.39833685302734373	-2.4422392578125	0		-0.938420654296875	0.307669189453125	0		-0.7001751708984375	-2.479324951171875	0		1.454630126953125	-0.552529052734375	0		3.226012451171875	-0.3603446350097656	0		4.5023359375	-0.3403509521484375	0		6.0143681640625	0.4189222412109375	0		-0.012491645812988282	5.9941748046875	0		
